 <svg  version="1.0" xmlns="http://www.w3.org/2000/svg"  width="300.000000pt" height="77.000000pt" viewBox="0 0 300.000000 77.000000"  preserveAspectRatio="xMidYMid meet">  <g transform="translate(0.000000,77.000000) scale(0.100000,-0.100000)" fill="#bf4a4a" stroke="none"> <path d="M358 587 c-17 -13 -59 -87 -109 -189 -90 -186 -93 -206 -37 -253 43 -36 78 -33 133 15 56 49 86 51 127 10 52 -52 83 -61 133 -38 28 13 55 55 55 87 0 31 -166 357 -191 375 -33 23 -79 20 -111 -7z m97 -33 c20 -20 23 -29 15 -44 -6 -11 -19 -24 -29 -30 -19 -10 -97 -7 -108 4 -7 7 24 55 50 79 27 23 42 22 72 -9z m119 -191 c64 -132 68 -144 57 -172 -16 -36 -58 -56 -92 -42 -13 5 -44 30 -69 56 -44 47 -131 95 -171 95 -11 0 -36 -7 -55 -15 -20 -8 -34 -11 -32 -7 32 69 81 151 93 156 9 3 45 6 79 6 73 0 106 18 106 58 0 36 7 26 84 -135z m-204 -123 c10 -17 -25 -52 -74 -74 -56 -26 -104 22 -76 74 11 20 18 22 77 18 42 -3 68 -9 73 -18z"/> <path d="M810 365 c0 -157 4 -245 10 -245 6 0 10 88 10 245 0 157 -4 245 -10 245 -6 0 -10 -88 -10 -245z"/> <path d="M1207 549 c-9 -6 -33 -41 -52 -79 -38 -76 -41 -85 -22 -73 6 4 53 10 102 13 85 5 90 6 93 28 5 33 -16 79 -46 102 -27 22 -48 25 -75 9z m66 -21 c19 -15 51 -88 39 -88 -5 0 -17 18 -27 39 -30 66 -66 58 -100 -22 -8 -20 -20 -37 -25 -37 -12 0 37 101 54 112 17 11 40 9 59 -4z m5 -63 c12 -25 17 -45 12 -45 -6 0 -18 16 -27 35 -20 43 -27 44 -43 5 -16 -38 -35 -52 -25 -19 11 36 34 69 48 69 7 0 23 -20 35 -45z m-24 -21 c9 -23 8 -24 -14 -24 -11 0 -20 2 -20 4 0 12 13 36 20 36 4 0 11 -7 14 -16z"/> <path d="M1500 540 c-35 -35 -26 -78 25 -130 l45 -46 -45 -44 c-51 -51 -60 -95 -25 -130 32 -32 65 -25 120 26 l50 47 50 -47 c53 -50 84 -57 118 -28 12 9 24 29 28 44 5 23 -2 35 -44 80 l-50 53 50 53 c42 45 49 57 44 80 -4 15 -16 35 -28 45 -34 28 -65 21 -118 -29 l-50 -47 -50 47 c-55 51 -88 58 -120 26z m119 -50 l55 -48 50 49 c57 55 87 62 112 24 21 -32 13 -52 -41 -105 l-44 -44 49 -52 c28 -29 50 -61 50 -70 0 -25 -29 -54 -54 -54 -25 0 -292 254 -301 287 -7 25 25 63 53 63 9 -1 41 -23 71 -50z m-29 -148 c0 -5 -18 -25 -40 -45 -44 -39 -51 -70 -19 -88 19 -10 27 -5 68 35 26 26 50 43 54 39 11 -10 -83 -93 -105 -93 -22 0 -58 34 -58 55 0 9 19 36 41 60 40 43 59 55 59 37z m-15 -62 c-22 -22 -35 -40 -29 -40 6 0 25 16 44 35 19 19 38 35 44 35 6 0 -10 -20 -34 -45 -45 -46 -63 -54 -76 -34 -7 11 76 103 85 94 2 -3 -13 -23 -34 -45z"/> <path d="M1525 517 c-32 -24 -9 -58 131 -191 112 -106 139 -128 153 -119 33 21 24 55 -29 108 l-50 49 51 52 c54 54 61 86 27 108 -15 9 -28 1 -78 -49 l-60 -59 -58 57 c-32 31 -60 57 -63 57 -3 0 -13 -6 -24 -13z m87 -64 l58 -57 59 58 c40 40 65 57 75 53 28 -11 17 -34 -39 -82 -30 -27 -55 -53 -55 -60 0 -6 25 -35 55 -64 59 -56 64 -68 39 -78 -20 -8 -285 253 -277 273 9 24 26 15 85 -43z"/> <path d="M1665 360 c71 -71 131 -127 134 -124 3 2 -23 33 -57 67 l-62 63 60 59 c33 32 57 61 54 64 -2 3 -31 -22 -64 -54 l-60 -59 -58 57 c-32 31 -62 57 -67 57 -5 0 49 -58 120 -130z"/> <path d="M1952 553 c-31 -12 -39 -57 -37 -196 2 -107 7 -143 19 -162 9 -14 22 -25 28 -25 6 0 3 9 -8 21 -16 18 -19 40 -22 159 -2 88 1 146 8 159 15 30 56 38 80 16 18 -16 20 -32 20 -152 0 -183 11 -203 111 -203 40 0 55 5 74 25 30 29 32 64 6 96 -16 20 -30 24 -95 27 l-76 4 0 95 c0 86 -2 96 -25 118 -23 23 -53 30 -83 18z m256 -269 c26 -18 29 -56 6 -78 -16 -17 -118 -23 -127 -8 -3 4 15 5 39 3 29 -2 53 3 69 13 29 19 30 25 11 51 -11 15 -25 18 -80 16 -41 -1 -66 2 -66 8 0 18 122 13 148 -5z m-19 -23 c8 -5 11 -16 8 -25 -5 -12 -21 -16 -72 -16 -83 0 -86 19 -2 22 l62 2 -62 3 c-35 2 -63 8 -63 13 0 12 110 13 129 1z"/> <path d="M2322 537 c-18 -19 -22 -35 -22 -86 l0 -63 25 16 c28 19 184 23 216 6 22 -12 27 -71 7 -88 -7 -5 -56 -12 -109 -14 -78 -2 -101 -7 -118 -22 -27 -24 -27 -70 -1 -96 18 -18 33 -20 145 -20 120 0 127 1 150 25 14 13 25 35 25 48 0 28 -38 67 -65 67 -15 0 -16 3 -7 12 15 15 16 53 2 79 -9 16 -7 19 10 19 57 0 80 83 34 119 -24 19 -40 21 -149 21 -114 0 -123 -1 -143 -23z m282 -13 c20 -20 21 -58 1 -74 -18 -15 -195 -23 -195 -9 0 4 41 10 91 11 73 2 94 6 103 20 8 13 6 22 -8 37 -16 17 -31 20 -125 20 -58 0 -113 -4 -121 -9 -7 -5 -17 -30 -21 -57 l-6 -48 -2 47 c-2 72 9 78 149 78 94 0 122 -3 134 -16z m-19 -39 c0 -18 -8 -20 -97 -23 -81 -2 -97 -5 -101 -20 -3 -10 -5 -6 -6 11 l-1 27 101 0 c60 0 98 4 94 9 -3 6 -51 9 -108 8 l-102 -2 -6 -35 -6 -35 -2 36 c0 20 2 39 6 43 4 3 57 5 117 4 103 -3 111 -4 111 -23z m-94 -225 c90 0 100 -2 97 -17 -3 -16 -17 -18 -123 -18 -119 0 -120 0 -123 24 -2 13 1 28 7 34 8 8 11 2 11 -21 l0 -32 105 0 c63 0 105 4 105 10 0 6 -40 10 -100 10 -90 0 -100 2 -100 18 0 27 14 37 18 13 3 -20 10 -21 103 -21z m123 -3 c8 -21 6 -31 -9 -47 -16 -18 -30 -20 -132 -20 -133 0 -154 7 -152 53 2 27 2 28 6 7 7 -42 29 -50 140 -50 90 0 106 3 123 20 16 16 18 25 10 40 -9 18 -22 20 -108 22 l-97 2 85 5 c102 7 122 2 134 -32z"/> <path d="M1968 519 c-16 -9 -18 -27 -18 -153 0 -129 2 -146 20 -167 l20 -24 -15 30 c-21 42 -21 277 0 295 29 24 35 0 35 -140 0 -135 1 -140 26 -167 22 -25 24 -25 10 -3 -13 19 -16 54 -16 166 0 124 -2 143 -18 157 -21 20 -21 20 -44 6z"/> <path d="M1982 358 c-2 -134 -1 -137 24 -165 l25 -28 -18 30 c-14 23 -19 58 -24 165 l-5 135 -2 -137z"/> <path d="M1330 405 c-9 -11 -34 -15 -104 -15 -50 0 -98 -5 -106 -11 -12 -8 -10 -9 10 -5 14 3 66 6 116 6 76 0 93 3 98 16 9 23 1 28 -14 9z"/> <path d="M2330 387 c-20 -10 -25 -21 -26 -54 -2 -41 -1 -42 21 -27 14 9 55 16 111 18 49 2 92 4 96 5 14 2 19 42 8 56 -16 19 -174 20 -210 2z m163 -5 c31 -2 38 -6 35 -19 -3 -15 -18 -19 -93 -23 -50 -4 -99 -10 -110 -14 -19 -9 -19 -8 -2 10 14 15 38 20 110 25 l92 7 -90 -2 c-49 -1 -99 -6 -110 -11 -18 -8 -18 -7 -7 8 13 15 56 23 112 21 14 0 42 -2 63 -2z"/> <path d="M1346 375 c-4 -12 -27 -15 -113 -15 -60 0 -115 -5 -123 -11 -11 -8 -7 -9 19 -5 18 3 76 6 127 6 83 0 94 2 104 20 6 11 7 20 1 20 -5 0 -11 -7 -15 -15z"/> <path d="M1360 340 c-8 -5 -64 -10 -125 -10 -115 0 -155 -6 -155 -22 0 -5 5 -6 11 -2 7 4 67 6 134 5 102 -2 125 1 139 14 24 24 22 32 -4 15z"/> <path d="M1380 309 c-8 -5 -74 -9 -145 -9 -102 0 -135 -3 -153 -16 -29 -20 -29 -67 0 -94 42 -39 92 -19 123 49 25 57 48 54 80 -9 35 -70 94 -81 132 -24 14 22 14 30 3 65 -16 46 -21 51 -40 38z m25 -50 c9 -39 -18 -71 -54 -67 -18 2 -32 15 -49 46 -13 23 -19 42 -14 42 5 0 15 -14 22 -30 28 -67 89 -55 76 14 -9 46 9 41 19 -5z m-250 -8 c-23 -46 -61 -40 -48 8 4 16 11 21 24 18 11 -3 22 -1 25 5 14 23 14 -3 -1 -31z m200 14 c-6 29 -6 29 10 10 19 -24 16 -49 -7 -53 -11 -2 -23 8 -32 27 -23 44 -19 50 10 16 l25 -30 -6 30z m-261 -14 c-5 -23 -2 -32 16 -41 26 -14 42 -3 60 40 7 17 16 30 21 30 15 0 10 -15 -14 -51 -30 -44 -74 -47 -96 -7 -13 22 -13 29 -2 42 19 22 21 20 15 -13z"/> </g> </svg> 